####
#
# OBJ File Generated by Meshlab
#
####
# Object low_res_sphere.obj
#
# Vertices: 42
# Faces: 80
#
####
vn 0.000000 0.850651 0.525731
v 0.000000 0.850651 0.525731
vn 0.000000 0.850651 -0.525731
v 0.000000 0.850651 -0.525731
vn 0.000000 -0.850651 0.525731
v 0.000000 -0.850651 0.525731
vn 0.000000 -0.850651 -0.525731
v 0.000000 -0.850651 -0.525731
vn 0.850651 0.525731 0.000000
v 0.850651 0.525731 0.000000
vn 0.850651 -0.525731 0.000000
v 0.850651 -0.525731 0.000000
vn -0.850651 0.525731 0.000000
v -0.850651 0.525731 0.000000
vn -0.850651 -0.525731 0.000000
v -0.850651 -0.525731 0.000000
vn 0.525731 0.000000 0.850651
v 0.525731 0.000000 0.850651
vn -0.525731 0.000000 0.850651
v -0.525731 0.000000 0.850651
vn 0.525731 0.000000 -0.850651
v 0.525731 0.000000 -0.850651
vn -0.525731 0.000000 -0.850651
v -0.525731 0.000000 -0.850651
vn 0.000000 1.000000 0.000000
v 0.000000 1.000000 0.000000
vn 0.500000 0.809017 0.309017
v 0.500000 0.809017 0.309017
vn 0.500000 0.809017 -0.309017
v 0.500000 0.809017 -0.309017
vn -0.500000 0.809017 -0.309017
v -0.500000 0.809017 -0.309017
vn -0.500000 0.809017 0.309017
v -0.500000 0.809017 0.309017
vn 0.000000 -1.000000 0.000000
v 0.000000 -1.000000 0.000000
vn 0.500000 -0.809017 -0.309017
v 0.500000 -0.809017 -0.309017
vn 0.500000 -0.809017 0.309017
v 0.500000 -0.809017 0.309017
vn -0.500000 -0.809017 0.309017
v -0.500000 -0.809017 0.309017
vn -0.500000 -0.809017 -0.309017
v -0.500000 -0.809017 -0.309017
vn 1.000000 0.000000 0.000000
v 1.000000 0.000000 0.000000
vn 0.809017 -0.309017 -0.500000
v 0.809017 -0.309017 -0.500000
vn 0.809017 0.309017 -0.500000
v 0.809017 0.309017 -0.500000
vn 0.809017 0.309017 0.500000
v 0.809017 0.309017 0.500000
vn 0.809017 -0.309017 0.500000
v 0.809017 -0.309017 0.500000
vn -1.000000 0.000000 0.000000
v -1.000000 0.000000 0.000000
vn -0.809017 -0.309017 0.500000
v -0.809017 -0.309017 0.500000
vn -0.809017 0.309017 0.500000
v -0.809017 0.309017 0.500000
vn -0.809017 0.309017 -0.500000
v -0.809017 0.309017 -0.500000
vn -0.809017 -0.309017 -0.500000
v -0.809017 -0.309017 -0.500000
vn 0.000000 0.000000 1.000000
v 0.000000 0.000000 1.000000
vn -0.309017 -0.500000 0.809017
v -0.309017 -0.500000 0.809017
vn 0.309017 -0.500000 0.809017
v 0.309017 -0.500000 0.809017
vn 0.309017 0.500000 0.809017
v 0.309017 0.500000 0.809017
vn -0.309017 0.500000 0.809017
v -0.309017 0.500000 0.809017
vn 0.000000 0.000000 -1.000000
v 0.000000 0.000000 -1.000000
vn -0.309017 0.500000 -0.809017
v -0.309017 0.500000 -0.809017
vn 0.309017 0.500000 -0.809017
v 0.309017 0.500000 -0.809017
vn 0.309017 -0.500000 -0.809017
v 0.309017 -0.500000 -0.809017
vn -0.309017 -0.500000 -0.809017
v -0.309017 -0.500000 -0.809017
# 42 vertices, 0 vertices normals

f 13//13 14//14 15//15
f 13//13 16//16 17//17
f 18//18 19//19 20//20
f 18//18 21//21 22//22
f 23//23 24//24 25//25
f 23//23 26//26 27//27
f 28//28 29//29 30//30
f 28//28 31//31 32//32
f 33//33 34//34 35//35
f 33//33 36//36 37//37
f 38//38 39//39 40//40
f 38//38 41//41 42//42
f 36//36 26//26 14//14
f 17//17 30//30 37//37
f 15//15 25//25 40//40
f 39//39 31//31 16//16
f 20//20 27//27 35//35
f 34//34 29//29 21//21
f 41//41 24//24 19//19
f 22//22 32//32 42//42
f 2//2 13//13 15//15
f 13//13 1//1 14//14
f 15//15 14//14 5//5
f 1//1 13//13 17//17
f 13//13 2//2 16//16
f 17//17 16//16 7//7
f 3//3 18//18 20//20
f 18//18 4//4 19//19
f 20//20 19//19 6//6
f 4//4 18//18 22//22
f 18//18 3//3 21//21
f 22//22 21//21 8//8
f 5//5 23//23 25//25
f 23//23 6//6 24//24
f 25//25 24//24 11//11
f 6//6 23//23 27//27
f 23//23 5//5 26//26
f 27//27 26//26 9//9
f 7//7 28//28 30//30
f 28//28 8//8 29//29
f 30//30 29//29 10//10
f 8//8 28//28 32//32
f 28//28 7//7 31//31
f 32//32 31//31 12//12
f 9//9 33//33 35//35
f 33//33 10//10 34//34
f 35//35 34//34 3//3
f 10//10 33//33 37//37
f 33//33 9//9 36//36
f 37//37 36//36 1//1
f 11//11 38//38 40//40
f 38//38 12//12 39//39
f 40//40 39//39 2//2
f 12//12 38//38 42//42
f 38//38 11//11 41//41
f 42//42 41//41 4//4
f 1//1 36//36 14//14
f 36//36 9//9 26//26
f 14//14 26//26 5//5
f 1//1 17//17 37//37
f 17//17 7//7 30//30
f 37//37 30//30 10//10
f 2//2 15//15 40//40
f 15//15 5//5 25//25
f 40//40 25//25 11//11
f 2//2 39//39 16//16
f 39//39 12//12 31//31
f 16//16 31//31 7//7
f 3//3 20//20 35//35
f 20//20 6//6 27//27
f 35//35 27//27 9//9
f 3//3 34//34 21//21
f 34//34 10//10 29//29
f 21//21 29//29 8//8
f 4//4 41//41 19//19
f 41//41 11//11 24//24
f 19//19 24//24 6//6
f 4//4 22//22 42//42
f 22//22 8//8 32//32
f 42//42 32//32 12//12
# 80 faces, 0 coords texture

# End of File